# Blender 4.4.3
# www.blender.org
mtllib Wheel_Col.mtl
o Cylinder
v 0.000000 0.164693 0.244434
v 0.000000 -0.164693 0.241833
v 0.047630 0.164693 0.239762
v 0.047630 -0.164693 0.237162
v 0.093430 0.164693 0.225926
v 0.093430 -0.164693 0.223326
v 0.135639 0.164693 0.203458
v 0.135639 -0.164693 0.200858
v 0.172636 0.164693 0.173222
v 0.172636 -0.164693 0.170621
v 0.202999 0.164693 0.136378
v 0.202999 -0.164693 0.133778
v 0.225560 0.164693 0.094343
v 0.225560 -0.164693 0.091743
v 0.239453 0.164693 0.048733
v 0.239453 -0.164693 0.046133
v 0.244144 0.164693 0.001300
v 0.244144 -0.164693 -0.001300
v 0.239453 0.164693 -0.046133
v 0.239453 -0.164693 -0.048733
v 0.225560 0.164693 -0.091743
v 0.225560 -0.164693 -0.094343
v 0.202999 0.164693 -0.133777
v 0.202999 -0.164693 -0.136378
v 0.172636 0.164693 -0.170621
v 0.172636 -0.164693 -0.173221
v 0.135639 0.164693 -0.200858
v 0.135639 -0.164693 -0.203458
v 0.093430 0.164693 -0.223326
v 0.093430 -0.164693 -0.225926
v 0.047630 0.164693 -0.237161
v 0.047630 -0.164693 -0.239762
v 0.000000 0.164693 -0.241833
v 0.000000 -0.164693 -0.244433
v -0.047630 0.164693 -0.237161
v -0.047630 -0.164693 -0.239762
v -0.093430 0.164693 -0.223326
v -0.093430 -0.164693 -0.225926
v -0.135639 0.164693 -0.200858
v -0.135639 -0.164693 -0.203458
v -0.172636 0.164693 -0.170621
v -0.172636 -0.164693 -0.173221
v -0.202999 0.164693 -0.133777
v -0.202999 -0.164693 -0.136378
v -0.225560 0.164693 -0.091743
v -0.225560 -0.164693 -0.094343
v -0.239453 0.164693 -0.046133
v -0.239453 -0.164693 -0.048733
v -0.244144 0.164693 0.001300
v -0.244144 -0.164693 -0.001300
v -0.239453 0.164693 0.048733
v -0.239453 -0.164693 0.046133
v -0.225560 0.164693 0.094343
v -0.225560 -0.164693 0.091743
v -0.202999 0.164693 0.136378
v -0.202999 -0.164693 0.133778
v -0.172636 0.164693 0.173222
v -0.172636 -0.164693 0.170621
v -0.135639 0.164693 0.203458
v -0.135639 -0.164693 0.200858
v -0.093430 0.164693 0.225926
v -0.093430 -0.164693 0.223326
v -0.047630 0.164693 0.239762
v -0.047630 -0.164693 0.237162
v 0.000000 0.000000 0.248474
v 0.048676 0.000000 0.243699
v 0.095482 0.000000 0.229560
v 0.138619 0.000000 0.206598
v 0.176428 0.000000 0.175698
v 0.207457 0.000000 0.138045
v 0.230514 0.000000 0.095087
v 0.244713 0.000000 0.048475
v 0.249507 0.000000 -0.000000
v 0.244713 0.000000 -0.048475
v 0.230514 0.000000 -0.095087
v 0.207457 0.000000 -0.138044
v 0.176428 0.000000 -0.175697
v 0.138619 0.000000 -0.206598
v 0.095482 0.000000 -0.229560
v 0.048676 0.000000 -0.243699
v 0.000000 0.000000 -0.248473
v -0.048676 0.000000 -0.243699
v -0.095482 0.000000 -0.229560
v -0.138619 0.000000 -0.206598
v -0.176428 0.000000 -0.175697
v -0.207457 0.000000 -0.138044
v -0.230514 0.000000 -0.095087
v -0.244713 0.000000 -0.048475
v -0.249507 0.000000 -0.000000
v -0.244713 0.000000 0.048475
v -0.230514 0.000000 0.095087
v -0.207457 0.000000 0.138045
v -0.176428 0.000000 0.175698
v -0.138619 0.000000 0.206598
v -0.095482 0.000000 0.229560
v -0.048676 0.000000 0.243699
v 0.000000 -0.084155 0.247809
v 0.048676 -0.084155 0.243035
v 0.095482 -0.084155 0.228896
v 0.138619 -0.084155 0.205934
v 0.176428 -0.084155 0.175033
v 0.207457 -0.084155 0.137380
v 0.230514 -0.084155 0.094423
v 0.244713 -0.084155 0.047811
v 0.249507 -0.084155 -0.000664
v 0.244713 -0.084155 -0.049139
v 0.230514 -0.084155 -0.095751
v 0.207457 -0.084155 -0.138709
v 0.176428 -0.084155 -0.176362
v 0.138619 -0.084155 -0.207262
v 0.095482 -0.084155 -0.230224
v 0.048676 -0.084155 -0.244363
v 0.000000 -0.084155 -0.249138
v -0.048676 -0.084155 -0.244363
v -0.095482 -0.084155 -0.230224
v -0.138619 -0.084155 -0.207262
v -0.176428 -0.084155 -0.176362
v -0.207457 -0.084155 -0.138709
v -0.230514 -0.084155 -0.095751
v -0.244713 -0.084155 -0.049139
v -0.249507 -0.084155 -0.000664
v -0.244713 -0.084155 0.047811
v -0.230514 -0.084155 0.094423
v -0.207457 -0.084155 0.137380
v -0.176428 -0.084155 0.175033
v -0.138619 -0.084155 0.205934
v -0.095482 -0.084155 0.228896
v -0.048676 -0.084155 0.243035
v 0.048676 0.084155 0.244364
v 0.095482 0.084155 0.230224
v 0.138619 0.084155 0.207263
v 0.176428 0.084155 0.176362
v 0.207457 0.084155 0.138709
v 0.230514 0.084155 0.095751
v 0.244713 0.084155 0.049139
v 0.249507 0.084155 0.000665
v 0.244713 0.084155 -0.047810
v 0.230514 0.084155 -0.094422
v 0.207457 0.084155 -0.137380
v 0.176428 0.084155 -0.175033
v 0.138619 0.084155 -0.205934
v 0.095482 0.084155 -0.228895
v 0.048676 0.084155 -0.243035
v 0.000000 0.084155 -0.247809
v -0.048676 0.084155 -0.243035
v -0.095482 0.084155 -0.228895
v -0.138619 0.084155 -0.205934
v -0.176428 0.084155 -0.175033
v -0.207457 0.084155 -0.137380
v -0.230514 0.084155 -0.094422
v -0.244713 0.084155 -0.047810
v -0.249507 0.084155 0.000665
v -0.244713 0.084155 0.049139
v -0.230514 0.084155 0.095751
v -0.207457 0.084155 0.138709
v -0.176428 0.084155 0.176362
v -0.138619 0.084155 0.207263
v -0.095482 0.084155 0.230224
v -0.048676 0.084155 0.244364
v 0.000000 0.084155 0.249138
v 0.000000 0.042077 0.248806
v 0.048676 0.042077 0.244032
v 0.095482 0.042077 0.229892
v 0.138619 0.042077 0.206931
v 0.176428 0.042077 0.176030
v 0.207457 0.042077 0.138377
v 0.230514 0.042077 0.095419
v 0.244713 0.042077 0.048807
v 0.249507 0.042077 0.000332
v 0.244713 0.042077 -0.048142
v 0.230514 0.042077 -0.094754
v 0.207457 0.042077 -0.137712
v 0.176428 0.042077 -0.175365
v 0.138619 0.042077 -0.206266
v 0.095482 0.042077 -0.229227
v 0.048676 0.042077 -0.243367
v 0.000000 0.042077 -0.248141
v -0.048676 0.042077 -0.243367
v -0.095482 0.042077 -0.229227
v -0.138619 0.042077 -0.206266
v -0.176428 0.042077 -0.175365
v -0.207457 0.042077 -0.137712
v -0.230514 0.042077 -0.094754
v -0.244713 0.042077 -0.048142
v -0.249507 0.042077 0.000332
v -0.244713 0.042077 0.048807
v -0.230514 0.042077 0.095419
v -0.207457 0.042077 0.138377
v -0.176428 0.042077 0.176030
v -0.138619 0.042077 0.206931
v -0.095482 0.042077 0.229892
v -0.048676 0.042077 0.244032
v 0.048676 -0.042078 0.243367
v 0.095482 -0.042078 0.229228
v 0.138619 -0.042078 0.206266
v 0.176428 -0.042078 0.175365
v 0.207457 -0.042078 0.137713
v 0.230514 -0.042078 0.094755
v 0.244713 -0.042078 0.048143
v 0.249507 -0.042078 -0.000332
v 0.244713 -0.042078 -0.048807
v 0.230514 -0.042078 -0.095419
v 0.207457 -0.042078 -0.138377
v 0.176428 -0.042078 -0.176029
v 0.138619 -0.042078 -0.206930
v 0.095482 -0.042078 -0.229892
v 0.048676 -0.042078 -0.244031
v 0.000000 -0.042078 -0.248806
v -0.048676 -0.042078 -0.244031
v -0.095482 -0.042078 -0.229892
v -0.138619 -0.042078 -0.206930
v -0.176428 -0.042078 -0.176029
v -0.207457 -0.042078 -0.138377
v -0.230514 -0.042078 -0.095419
v -0.244713 -0.042078 -0.048807
v -0.249507 -0.042078 -0.000332
v -0.244713 -0.042078 0.048143
v -0.230514 -0.042078 0.094755
v -0.207457 -0.042078 0.137713
v -0.176428 -0.042078 0.175365
v -0.138619 -0.042078 0.206266
v -0.095482 -0.042078 0.229228
v -0.048676 -0.042078 0.243367
v 0.000000 -0.042078 0.248142
vn 0.0973 -0.0736 0.9925
vn 0.2884 -0.0734 0.9547
vn 0.4686 -0.0728 0.8804
vn 0.6312 -0.0720 0.7723
vn 0.7698 -0.0710 0.6344
vn 0.8790 -0.0698 0.4718
vn 0.9544 -0.0684 0.2907
vn 0.9929 -0.0669 0.0982
vn 0.9930 -0.0653 -0.0982
vn 0.9547 -0.0638 -0.2908
vn 0.8794 -0.0623 -0.4720
vn 0.7703 -0.0610 -0.6348
vn 0.6317 -0.0599 -0.7729
vn 0.4691 -0.0590 -0.8812
vn 0.2887 -0.0583 -0.9556
vn 0.0975 -0.0580 -0.9935
vn -0.0975 -0.0580 -0.9935
vn -0.2887 -0.0583 -0.9556
vn -0.4691 -0.0590 -0.8812
vn -0.6317 -0.0599 -0.7729
vn -0.7703 -0.0610 -0.6348
vn -0.8794 -0.0623 -0.4720
vn -0.9547 -0.0638 -0.2908
vn -0.9930 -0.0653 -0.0982
vn -0.9929 -0.0669 0.0982
vn -0.9544 -0.0684 0.2907
vn -0.8790 -0.0698 0.4718
vn -0.7698 -0.0710 0.6344
vn -0.6312 -0.0720 0.7723
vn -0.4686 -0.0728 0.8804
vn -0.0000 -1.0000 -0.0000
vn -0.2884 -0.0734 0.9547
vn -0.0973 -0.0736 0.9925
vn -0.0000 1.0000 -0.0000
vn -0.0976 -0.0079 0.9952
vn -0.2892 -0.0076 0.9572
vn -0.4699 -0.0070 0.8827
vn -0.6328 -0.0061 0.7743
vn -0.7717 -0.0050 0.6360
vn -0.8811 -0.0037 0.4729
vn -0.9566 -0.0023 0.2914
vn -0.9951 -0.0008 0.0984
vn -0.9951 0.0008 -0.0984
vn -0.9566 0.0023 -0.2914
vn -0.8811 0.0037 -0.4729
vn -0.7717 0.0050 -0.6360
vn -0.6328 0.0061 -0.7743
vn -0.4699 0.0070 -0.8827
vn -0.2892 0.0076 -0.9572
vn -0.0976 0.0079 -0.9952
vn 0.0976 0.0079 -0.9952
vn 0.2892 0.0076 -0.9572
vn 0.4699 0.0070 -0.8827
vn 0.6328 0.0061 -0.7743
vn 0.7717 0.0050 -0.6360
vn 0.8811 0.0037 -0.4729
vn 0.9566 0.0023 -0.2914
vn 0.9951 0.0008 -0.0984
vn 0.9951 -0.0008 0.0984
vn 0.9566 -0.0023 0.2914
vn 0.8811 -0.0037 0.4729
vn 0.7717 -0.0050 0.6360
vn 0.6328 -0.0061 0.7743
vn 0.4699 -0.0070 0.8827
vn 0.2892 -0.0076 0.9572
vn 0.0976 -0.0079 0.9952
vn -0.2892 -0.0076 0.9573
vn -0.2892 0.0076 -0.9573
vn 0.2892 0.0076 -0.9573
vn 0.2892 -0.0076 0.9573
vn 0.0975 0.0580 0.9935
vn 0.2887 0.0584 0.9556
vn 0.4691 0.0590 0.8812
vn 0.6317 0.0599 0.7729
vn 0.7703 0.0610 0.6348
vn 0.8794 0.0623 0.4720
vn 0.9547 0.0638 0.2908
vn 0.9930 0.0653 0.0982
vn 0.9929 0.0669 -0.0982
vn 0.9544 0.0684 -0.2907
vn 0.8790 0.0698 -0.4718
vn 0.7698 0.0710 -0.6344
vn 0.6312 0.0720 -0.7723
vn 0.4686 0.0728 -0.8804
vn 0.2884 0.0734 -0.9547
vn 0.0973 0.0736 -0.9925
vn -0.0973 0.0736 -0.9925
vn -0.2884 0.0734 -0.9547
vn -0.4686 0.0728 -0.8804
vn -0.6312 0.0720 -0.7723
vn -0.7698 0.0710 -0.6344
vn -0.8790 0.0698 -0.4718
vn -0.9544 0.0684 -0.2907
vn -0.9929 0.0669 -0.0982
vn -0.9930 0.0653 0.0982
vn -0.9547 0.0638 0.2908
vn -0.8794 0.0623 0.4720
vn -0.7703 0.0610 0.6348
vn -0.6317 0.0599 0.7729
vn -0.4691 0.0590 0.8812
vn -0.2887 0.0584 0.9556
vn -0.0975 0.0580 0.9935
vt 1.000000 0.875000
vt 1.000000 1.000000
vt 0.968750 1.000000
vt 0.968750 0.875000
vt 0.937500 1.000000
vt 0.937500 0.875000
vt 0.906250 1.000000
vt 0.906250 0.875000
vt 0.875000 1.000000
vt 0.875000 0.875000
vt 0.843750 1.000000
vt 0.843750 0.875000
vt 0.812500 1.000000
vt 0.812500 0.875000
vt 0.781250 1.000000
vt 0.781250 0.875000
vt 0.750000 1.000000
vt 0.750000 0.875000
vt 0.718750 1.000000
vt 0.718750 0.875000
vt 0.687500 1.000000
vt 0.687500 0.875000
vt 0.656250 1.000000
vt 0.656250 0.875000
vt 0.625000 1.000000
vt 0.625000 0.875000
vt 0.593750 1.000000
vt 0.593750 0.875000
vt 0.562500 1.000000
vt 0.562500 0.875000
vt 0.531250 1.000000
vt 0.531250 0.875000
vt 0.500000 1.000000
vt 0.500000 0.875000
vt 0.468750 1.000000
vt 0.468750 0.875000
vt 0.437500 1.000000
vt 0.437500 0.875000
vt 0.406250 1.000000
vt 0.406250 0.875000
vt 0.375000 1.000000
vt 0.375000 0.875000
vt 0.343750 1.000000
vt 0.343750 0.875000
vt 0.312500 1.000000
vt 0.312500 0.875000
vt 0.281250 1.000000
vt 0.281250 0.875000
vt 0.250000 1.000000
vt 0.250000 0.875000
vt 0.218750 1.000000
vt 0.218750 0.875000
vt 0.187500 1.000000
vt 0.187500 0.875000
vt 0.156250 1.000000
vt 0.156250 0.875000
vt 0.125000 1.000000
vt 0.125000 0.875000
vt 0.093750 1.000000
vt 0.093750 0.875000
vt 0.062500 1.000000
vt 0.062500 0.875000
vt 0.296822 0.485388
vt 0.250000 0.490000
vt 0.203178 0.485388
vt 0.158156 0.471731
vt 0.116663 0.449553
vt 0.080294 0.419706
vt 0.050447 0.383337
vt 0.028269 0.341844
vt 0.014612 0.296822
vt 0.010000 0.250000
vt 0.014612 0.203178
vt 0.028269 0.158156
vt 0.050447 0.116663
vt 0.080294 0.080294
vt 0.116663 0.050447
vt 0.158156 0.028269
vt 0.203178 0.014612
vt 0.250000 0.010000
vt 0.296822 0.014612
vt 0.341844 0.028269
vt 0.383337 0.050447
vt 0.419706 0.080294
vt 0.449553 0.116663
vt 0.471731 0.158156
vt 0.485388 0.203178
vt 0.490000 0.250000
vt 0.485388 0.296822
vt 0.471731 0.341844
vt 0.449553 0.383337
vt 0.419706 0.419706
vt 0.383337 0.449553
vt 0.341844 0.471731
vt 0.031250 1.000000
vt 0.031250 0.875000
vt 0.000000 1.000000
vt 0.000000 0.875000
vt 0.750000 0.490000
vt 0.796822 0.485388
vt 0.841844 0.471731
vt 0.883337 0.449553
vt 0.919706 0.419706
vt 0.949553 0.383337
vt 0.971731 0.341844
vt 0.985388 0.296822
vt 0.990000 0.250000
vt 0.985388 0.203178
vt 0.971731 0.158156
vt 0.949553 0.116663
vt 0.919706 0.080294
vt 0.883337 0.050447
vt 0.841844 0.028269
vt 0.796822 0.014612
vt 0.750000 0.010000
vt 0.703178 0.014612
vt 0.658156 0.028269
vt 0.616663 0.050447
vt 0.580294 0.080294
vt 0.550447 0.116663
vt 0.528269 0.158156
vt 0.514612 0.203178
vt 0.510000 0.250000
vt 0.514612 0.296822
vt 0.528269 0.341844
vt 0.550447 0.383337
vt 0.580294 0.419706
vt 0.616663 0.449553
vt 0.658156 0.471731
vt 0.703178 0.485388
vt 0.031250 0.687500
vt 0.031250 0.750000
vt 0.000000 0.750000
vt 0.000000 0.687500
vt 0.062500 0.687500
vt 0.062500 0.750000
vt 0.093750 0.687500
vt 0.093750 0.750000
vt 0.125000 0.687500
vt 0.125000 0.750000
vt 0.156250 0.687500
vt 0.156250 0.750000
vt 0.187500 0.687500
vt 0.187500 0.750000
vt 0.218750 0.687500
vt 0.218750 0.750000
vt 0.250000 0.687500
vt 0.250000 0.750000
vt 0.281250 0.687500
vt 0.281250 0.750000
vt 0.312500 0.687500
vt 0.312500 0.750000
vt 0.343750 0.687500
vt 0.343750 0.750000
vt 0.375000 0.687500
vt 0.375000 0.750000
vt 0.406250 0.687500
vt 0.406250 0.750000
vt 0.437500 0.687500
vt 0.437500 0.750000
vt 0.468750 0.687500
vt 0.468750 0.750000
vt 0.500000 0.687500
vt 0.500000 0.750000
vt 0.531250 0.687500
vt 0.531250 0.750000
vt 0.562500 0.687500
vt 0.562500 0.750000
vt 0.593750 0.687500
vt 0.593750 0.750000
vt 0.625000 0.687500
vt 0.625000 0.750000
vt 0.656250 0.687500
vt 0.656250 0.750000
vt 0.687500 0.687500
vt 0.687500 0.750000
vt 0.718750 0.687500
vt 0.718750 0.750000
vt 0.750000 0.687500
vt 0.750000 0.750000
vt 0.781250 0.687500
vt 0.781250 0.750000
vt 0.812500 0.687500
vt 0.812500 0.750000
vt 0.843750 0.687500
vt 0.843750 0.750000
vt 0.875000 0.687500
vt 0.875000 0.750000
vt 0.906250 0.687500
vt 0.906250 0.750000
vt 0.937500 0.687500
vt 0.937500 0.750000
vt 0.968750 0.687500
vt 0.968750 0.750000
vt 1.000000 0.687500
vt 1.000000 0.750000
vt 0.031250 0.812500
vt 0.000000 0.812500
vt 0.062500 0.812500
vt 0.093750 0.812500
vt 0.125000 0.812500
vt 0.156250 0.812500
vt 0.187500 0.812500
vt 0.218750 0.812500
vt 0.250000 0.812500
vt 0.281250 0.812500
vt 0.312500 0.812500
vt 0.343750 0.812500
vt 0.375000 0.812500
vt 0.406250 0.812500
vt 0.437500 0.812500
vt 0.468750 0.812500
vt 0.500000 0.812500
vt 0.531250 0.812500
vt 0.562500 0.812500
vt 0.593750 0.812500
vt 0.625000 0.812500
vt 0.656250 0.812500
vt 0.687500 0.812500
vt 0.718750 0.812500
vt 0.750000 0.812500
vt 0.781250 0.812500
vt 0.812500 0.812500
vt 0.843750 0.812500
vt 0.875000 0.812500
vt 0.906250 0.812500
vt 0.937500 0.812500
vt 0.968750 0.812500
vt 1.000000 0.812500
vt 1.000000 0.500000
vt 1.000000 0.625000
vt 0.968750 0.625000
vt 0.968750 0.500000
vt 0.937500 0.625000
vt 0.937500 0.500000
vt 0.906250 0.625000
vt 0.906250 0.500000
vt 0.875000 0.625000
vt 0.875000 0.500000
vt 0.843750 0.625000
vt 0.843750 0.500000
vt 0.812500 0.625000
vt 0.812500 0.500000
vt 0.781250 0.625000
vt 0.781250 0.500000
vt 0.750000 0.625000
vt 0.750000 0.500000
vt 0.718750 0.625000
vt 0.718750 0.500000
vt 0.687500 0.625000
vt 0.687500 0.500000
vt 0.656250 0.625000
vt 0.656250 0.500000
vt 0.625000 0.625000
vt 0.625000 0.500000
vt 0.593750 0.625000
vt 0.593750 0.500000
vt 0.562500 0.625000
vt 0.562500 0.500000
vt 0.531250 0.625000
vt 0.531250 0.500000
vt 0.500000 0.625000
vt 0.500000 0.500000
vt 0.468750 0.625000
vt 0.468750 0.500000
vt 0.437500 0.625000
vt 0.437500 0.500000
vt 0.406250 0.625000
vt 0.406250 0.500000
vt 0.375000 0.625000
vt 0.375000 0.500000
vt 0.343750 0.625000
vt 0.343750 0.500000
vt 0.312500 0.625000
vt 0.312500 0.500000
vt 0.281250 0.625000
vt 0.281250 0.500000
vt 0.250000 0.625000
vt 0.250000 0.500000
vt 0.218750 0.625000
vt 0.218750 0.500000
vt 0.187500 0.625000
vt 0.187500 0.500000
vt 0.156250 0.625000
vt 0.156250 0.500000
vt 0.125000 0.625000
vt 0.125000 0.500000
vt 0.093750 0.625000
vt 0.093750 0.500000
vt 0.062500 0.625000
vt 0.062500 0.500000
vt 0.031250 0.625000
vt 0.031250 0.500000
vt 0.000000 0.625000
vt 0.000000 0.500000
s 1
f 97/1/1 2/2/1 4/3/1 98/4/1
f 98/4/2 4/3/2 6/5/2 99/6/2
f 99/6/3 6/5/3 8/7/3 100/8/3
f 100/8/4 8/7/4 10/9/4 101/10/4
f 101/10/5 10/9/5 12/11/5 102/12/5
f 102/12/6 12/11/6 14/13/6 103/14/6
f 103/14/7 14/13/7 16/15/7 104/16/7
f 104/16/8 16/15/8 18/17/8 105/18/8
f 105/18/9 18/17/9 20/19/9 106/20/9
f 106/20/10 20/19/10 22/21/10 107/22/10
f 107/22/11 22/21/11 24/23/11 108/24/11
f 108/24/12 24/23/12 26/25/12 109/26/12
f 109/26/13 26/25/13 28/27/13 110/28/13
f 110/28/14 28/27/14 30/29/14 111/30/14
f 111/30/15 30/29/15 32/31/15 112/32/15
f 112/32/16 32/31/16 34/33/16 113/34/16
f 113/34/17 34/33/17 36/35/17 114/36/17
f 114/36/18 36/35/18 38/37/18 115/38/18
f 115/38/19 38/37/19 40/39/19 116/40/19
f 116/40/20 40/39/20 42/41/20 117/42/20
f 117/42/21 42/41/21 44/43/21 118/44/21
f 118/44/22 44/43/22 46/45/22 119/46/22
f 119/46/23 46/45/23 48/47/23 120/48/23
f 120/48/24 48/47/24 50/49/24 121/50/24
f 121/50/25 50/49/25 52/51/25 122/52/25
f 122/52/26 52/51/26 54/53/26 123/54/26
f 123/54/27 54/53/27 56/55/27 124/56/27
f 124/56/28 56/55/28 58/57/28 125/58/28
f 125/58/29 58/57/29 60/59/29 126/60/29
f 126/60/30 60/59/30 62/61/30 127/62/30
f 4/63/31 2/64/31 64/65/31 62/66/31 60/67/31 58/68/31 56/69/31 54/70/31 52/71/31 50/72/31 48/73/31 46/74/31 44/75/31 42/76/31 40/77/31 38/78/31 36/79/31 34/80/31 32/81/31 30/82/31 28/83/31 26/84/31 24/85/31 22/86/31 20/87/31 18/88/31 16/89/31 14/90/31 12/91/31 10/92/31 8/93/31 6/94/31
f 127/62/32 62/61/32 64/95/32 128/96/32
f 128/96/33 64/95/33 2/97/33 97/98/33
f 1/99/34 3/100/34 5/101/34 7/102/34 9/103/34 11/104/34 13/105/34 15/106/34 17/107/34 19/108/34 21/109/34 23/110/34 25/111/34 27/112/34 29/113/34 31/114/34 33/115/34 35/116/34 37/117/34 39/118/34 41/119/34 43/120/34 45/121/34 47/122/34 49/123/34 51/124/34 53/125/34 55/126/34 57/127/34 59/128/34 61/129/34 63/130/34
f 192/131/35 96/132/35 65/133/35 161/134/35
f 191/135/36 95/136/36 96/132/36 192/131/36
f 190/137/37 94/138/37 95/136/37 191/135/37
f 189/139/38 93/140/38 94/138/38 190/137/38
f 188/141/39 92/142/39 93/140/39 189/139/39
f 187/143/40 91/144/40 92/142/40 188/141/40
f 186/145/41 90/146/41 91/144/41 187/143/41
f 185/147/42 89/148/42 90/146/42 186/145/42
f 184/149/43 88/150/43 89/148/43 185/147/43
f 183/151/44 87/152/44 88/150/44 184/149/44
f 182/153/45 86/154/45 87/152/45 183/151/45
f 181/155/46 85/156/46 86/154/46 182/153/46
f 180/157/47 84/158/47 85/156/47 181/155/47
f 179/159/48 83/160/48 84/158/48 180/157/48
f 178/161/49 82/162/49 83/160/49 179/159/49
f 177/163/50 81/164/50 82/162/50 178/161/50
f 176/165/51 80/166/51 81/164/51 177/163/51
f 175/167/52 79/168/52 80/166/52 176/165/52
f 174/169/53 78/170/53 79/168/53 175/167/53
f 173/171/54 77/172/54 78/170/54 174/169/54
f 172/173/55 76/174/55 77/172/55 173/171/55
f 171/175/56 75/176/56 76/174/56 172/173/56
f 170/177/57 74/178/57 75/176/57 171/175/57
f 169/179/58 73/180/58 74/178/58 170/177/58
f 168/181/59 72/182/59 73/180/59 169/179/59
f 167/183/60 71/184/60 72/182/60 168/181/60
f 166/185/61 70/186/61 71/184/61 167/183/61
f 165/187/62 69/188/62 70/186/62 166/185/62
f 164/189/63 68/190/63 69/188/63 165/187/63
f 163/191/64 67/192/64 68/190/64 164/189/64
f 162/193/65 66/194/65 67/192/65 163/191/65
f 161/195/66 65/196/66 66/194/66 162/193/66
f 223/197/35 128/96/35 97/98/35 224/198/35
f 222/199/67 127/62/67 128/96/67 223/197/67
f 221/200/37 126/60/37 127/62/37 222/199/37
f 220/201/38 125/58/38 126/60/38 221/200/38
f 219/202/39 124/56/39 125/58/39 220/201/39
f 218/203/40 123/54/40 124/56/40 219/202/40
f 217/204/41 122/52/41 123/54/41 218/203/41
f 216/205/42 121/50/42 122/52/42 217/204/42
f 215/206/43 120/48/43 121/50/43 216/205/43
f 214/207/44 119/46/44 120/48/44 215/206/44
f 213/208/45 118/44/45 119/46/45 214/207/45
f 212/209/46 117/42/46 118/44/46 213/208/46
f 211/210/47 116/40/47 117/42/47 212/209/47
f 210/211/48 115/38/48 116/40/48 211/210/48
f 209/212/68 114/36/68 115/38/68 210/211/68
f 208/213/50 113/34/50 114/36/50 209/212/50
f 207/214/51 112/32/51 113/34/51 208/213/51
f 206/215/69 111/30/69 112/32/69 207/214/69
f 205/216/53 110/28/53 111/30/53 206/215/53
f 204/217/54 109/26/54 110/28/54 205/216/54
f 203/218/55 108/24/55 109/26/55 204/217/55
f 202/219/56 107/22/56 108/24/56 203/218/56
f 201/220/57 106/20/57 107/22/57 202/219/57
f 200/221/58 105/18/58 106/20/58 201/220/58
f 199/222/59 104/16/59 105/18/59 200/221/59
f 198/223/60 103/14/60 104/16/60 199/222/60
f 197/224/61 102/12/61 103/14/61 198/223/61
f 196/225/62 101/10/62 102/12/62 197/224/62
f 195/226/63 100/8/63 101/10/63 196/225/63
f 194/227/64 99/6/64 100/8/64 195/226/64
f 193/228/70 98/4/70 99/6/70 194/227/70
f 224/229/66 97/1/66 98/4/66 193/228/66
f 1/230/71 160/231/71 129/232/71 3/233/71
f 3/233/72 129/232/72 130/234/72 5/235/72
f 5/235/73 130/234/73 131/236/73 7/237/73
f 7/237/74 131/236/74 132/238/74 9/239/74
f 9/239/75 132/238/75 133/240/75 11/241/75
f 11/241/76 133/240/76 134/242/76 13/243/76
f 13/243/77 134/242/77 135/244/77 15/245/77
f 15/245/78 135/244/78 136/246/78 17/247/78
f 17/247/79 136/246/79 137/248/79 19/249/79
f 19/249/80 137/248/80 138/250/80 21/251/80
f 21/251/81 138/250/81 139/252/81 23/253/81
f 23/253/82 139/252/82 140/254/82 25/255/82
f 25/255/83 140/254/83 141/256/83 27/257/83
f 27/257/84 141/256/84 142/258/84 29/259/84
f 29/259/85 142/258/85 143/260/85 31/261/85
f 31/261/86 143/260/86 144/262/86 33/263/86
f 33/263/87 144/262/87 145/264/87 35/265/87
f 35/265/88 145/264/88 146/266/88 37/267/88
f 37/267/89 146/266/89 147/268/89 39/269/89
f 39/269/90 147/268/90 148/270/90 41/271/90
f 41/271/91 148/270/91 149/272/91 43/273/91
f 43/273/92 149/272/92 150/274/92 45/275/92
f 45/275/93 150/274/93 151/276/93 47/277/93
f 47/277/94 151/276/94 152/278/94 49/279/94
f 49/279/95 152/278/95 153/280/95 51/281/95
f 51/281/96 153/280/96 154/282/96 53/283/96
f 53/283/97 154/282/97 155/284/97 55/285/97
f 55/285/98 155/284/98 156/286/98 57/287/98
f 57/287/99 156/286/99 157/288/99 59/289/99
f 59/289/100 157/288/100 158/290/100 61/291/100
f 61/291/101 158/290/101 159/292/101 63/293/101
f 63/293/102 159/292/102 160/294/102 1/295/102
f 160/231/66 161/195/66 162/193/66 129/232/66
f 129/232/65 162/193/65 163/191/65 130/234/65
f 130/234/64 163/191/64 164/189/64 131/236/64
f 131/236/63 164/189/63 165/187/63 132/238/63
f 132/238/62 165/187/62 166/185/62 133/240/62
f 133/240/61 166/185/61 167/183/61 134/242/61
f 134/242/60 167/183/60 168/181/60 135/244/60
f 135/244/59 168/181/59 169/179/59 136/246/59
f 136/246/58 169/179/58 170/177/58 137/248/58
f 137/248/57 170/177/57 171/175/57 138/250/57
f 138/250/56 171/175/56 172/173/56 139/252/56
f 139/252/55 172/173/55 173/171/55 140/254/55
f 140/254/54 173/171/54 174/169/54 141/256/54
f 141/256/53 174/169/53 175/167/53 142/258/53
f 142/258/52 175/167/52 176/165/52 143/260/52
f 143/260/51 176/165/51 177/163/51 144/262/51
f 144/262/50 177/163/50 178/161/50 145/264/50
f 145/264/49 178/161/49 179/159/49 146/266/49
f 146/266/48 179/159/48 180/157/48 147/268/48
f 147/268/47 180/157/47 181/155/47 148/270/47
f 148/270/46 181/155/46 182/153/46 149/272/46
f 149/272/45 182/153/45 183/151/45 150/274/45
f 150/274/44 183/151/44 184/149/44 151/276/44
f 151/276/43 184/149/43 185/147/43 152/278/43
f 152/278/42 185/147/42 186/145/42 153/280/42
f 153/280/41 186/145/41 187/143/41 154/282/41
f 154/282/40 187/143/40 188/141/40 155/284/40
f 155/284/39 188/141/39 189/139/39 156/286/39
f 156/286/38 189/139/38 190/137/38 157/288/38
f 157/288/37 190/137/37 191/135/37 158/290/37
f 158/290/36 191/135/36 192/131/36 159/292/36
f 159/292/35 192/131/35 161/134/35 160/294/35
f 65/196/66 224/229/66 193/228/66 66/194/66
f 66/194/65 193/228/70 194/227/70 67/192/65
f 67/192/64 194/227/64 195/226/64 68/190/64
f 68/190/63 195/226/63 196/225/63 69/188/63
f 69/188/62 196/225/62 197/224/62 70/186/62
f 70/186/61 197/224/61 198/223/61 71/184/61
f 71/184/60 198/223/60 199/222/60 72/182/60
f 72/182/59 199/222/59 200/221/59 73/180/59
f 73/180/58 200/221/58 201/220/58 74/178/58
f 74/178/57 201/220/57 202/219/57 75/176/57
f 75/176/56 202/219/56 203/218/56 76/174/56
f 76/174/55 203/218/55 204/217/55 77/172/55
f 77/172/54 204/217/54 205/216/54 78/170/54
f 78/170/53 205/216/53 206/215/53 79/168/53
f 79/168/52 206/215/69 207/214/69 80/166/52
f 80/166/51 207/214/51 208/213/51 81/164/51
f 81/164/50 208/213/50 209/212/50 82/162/50
f 82/162/49 209/212/68 210/211/68 83/160/49
f 83/160/48 210/211/48 211/210/48 84/158/48
f 84/158/47 211/210/47 212/209/47 85/156/47
f 85/156/46 212/209/46 213/208/46 86/154/46
f 86/154/45 213/208/45 214/207/45 87/152/45
f 87/152/44 214/207/44 215/206/44 88/150/44
f 88/150/43 215/206/43 216/205/43 89/148/43
f 89/148/42 216/205/42 217/204/42 90/146/42
f 90/146/41 217/204/41 218/203/41 91/144/41
f 91/144/40 218/203/40 219/202/40 92/142/40
f 92/142/39 219/202/39 220/201/39 93/140/39
f 93/140/38 220/201/38 221/200/38 94/138/38
f 94/138/37 221/200/37 222/199/37 95/136/37
f 95/136/36 222/199/67 223/197/67 96/132/36
f 96/132/35 223/197/35 224/198/35 65/133/35
